<mxfile host="Electron" modified="2024-10-24T17:39:43.736Z" agent="Mozilla/5.0 (Windows NT 10.0; Win64; x64) AppleWebKit/537.36 (KHTML, like Gecko) draw.io/21.6.8 Chrome/114.0.5735.289 Electron/25.5.0 Safari/537.36" etag="AE9Hbnx8psdcY6sT5Puj" version="21.6.8" type="device">
  <diagram name="Page-1" id="9f46799a-70d6-7492-0946-bef42562c5a5">
    <mxGraphModel dx="3615" dy="2605" grid="1" gridSize="10" guides="1" tooltips="1" connect="1" arrows="1" fold="1" page="1" pageScale="1" pageWidth="1100" pageHeight="850" background="none" math="0" shadow="0">
      <root>
        <mxCell id="0" />
        <mxCell id="1" parent="0" />
        <mxCell id="h9AJb2mvWXVQ0J7r2r_D-72" value="AirBreathing Project" style="swimlane;whiteSpace=wrap;html=1;" parent="1" vertex="1">
          <mxGeometry x="80" y="-390" width="1810" height="1450" as="geometry" />
        </mxCell>
        <mxCell id="h9AJb2mvWXVQ0J7r2r_D-67" value="compressorGeometry (empty)" style="swimlane;fontStyle=0;childLayout=stackLayout;horizontal=1;startSize=30;horizontalStack=0;resizeParent=1;resizeParentMax=0;resizeLast=0;collapsible=1;marginBottom=0;whiteSpace=wrap;html=1;" parent="h9AJb2mvWXVQ0J7r2r_D-72" vertex="1">
          <mxGeometry x="1300" y="395" width="220" height="60" as="geometry" />
        </mxCell>
        <mxCell id="h9AJb2mvWXVQ0J7r2r_D-68" value="ComputeDeltaCurcularArcCambner" style="text;strokeColor=none;fillColor=none;align=left;verticalAlign=middle;spacingLeft=4;spacingRight=4;overflow=hidden;points=[[0,0.5],[1,0.5]];portConstraint=eastwest;rotatable=0;whiteSpace=wrap;html=1;" parent="h9AJb2mvWXVQ0J7r2r_D-67" vertex="1">
          <mxGeometry y="30" width="220" height="30" as="geometry" />
        </mxCell>
        <mxCell id="h9AJb2mvWXVQ0J7r2r_D-81" style="edgeStyle=orthogonalEdgeStyle;rounded=0;orthogonalLoop=1;jettySize=auto;html=1;entryX=0.25;entryY=0;entryDx=0;entryDy=0;" parent="h9AJb2mvWXVQ0J7r2r_D-72" source="h9AJb2mvWXVQ0J7r2r_D-2" target="h9AJb2mvWXVQ0J7r2r_D-77" edge="1">
          <mxGeometry relative="1" as="geometry" />
        </mxCell>
        <mxCell id="h9AJb2mvWXVQ0J7r2r_D-90" style="edgeStyle=orthogonalEdgeStyle;rounded=0;orthogonalLoop=1;jettySize=auto;html=1;" parent="h9AJb2mvWXVQ0J7r2r_D-72" source="h9AJb2mvWXVQ0J7r2r_D-2" target="h9AJb2mvWXVQ0J7r2r_D-85" edge="1">
          <mxGeometry relative="1" as="geometry">
            <Array as="points">
              <mxPoint x="650" y="700" />
            </Array>
          </mxGeometry>
        </mxCell>
        <mxCell id="h9AJb2mvWXVQ0J7r2r_D-2" value="EngineModule" style="swimlane;fontStyle=0;childLayout=stackLayout;horizontal=1;startSize=30;horizontalStack=0;resizeParent=1;resizeParentMax=0;resizeLast=0;collapsible=1;marginBottom=0;whiteSpace=wrap;html=1;" parent="h9AJb2mvWXVQ0J7r2r_D-72" vertex="1">
          <mxGeometry x="390" y="470" width="160" height="420" as="geometry">
            <mxRectangle x="530" y="90" width="120" height="30" as="alternateBounds" />
          </mxGeometry>
        </mxCell>
        <mxCell id="h9AJb2mvWXVQ0J7r2r_D-3" value="Stage() class" style="text;strokeColor=none;fillColor=none;align=left;verticalAlign=middle;spacingLeft=4;spacingRight=4;overflow=hidden;points=[[0,0.5],[1,0.5]];portConstraint=eastwest;rotatable=0;whiteSpace=wrap;html=1;" parent="h9AJb2mvWXVQ0J7r2r_D-2" vertex="1">
          <mxGeometry y="30" width="160" height="30" as="geometry" />
        </mxCell>
        <mxCell id="h9AJb2mvWXVQ0J7r2r_D-4" value="Intake() Class" style="text;strokeColor=none;fillColor=none;align=left;verticalAlign=middle;spacingLeft=4;spacingRight=4;overflow=hidden;points=[[0,0.5],[1,0.5]];portConstraint=eastwest;rotatable=0;whiteSpace=wrap;html=1;" parent="h9AJb2mvWXVQ0J7r2r_D-2" vertex="1">
          <mxGeometry y="60" width="160" height="30" as="geometry" />
        </mxCell>
        <mxCell id="h9AJb2mvWXVQ0J7r2r_D-5" value="Compressor() Class" style="text;strokeColor=none;fillColor=none;align=left;verticalAlign=middle;spacingLeft=4;spacingRight=4;overflow=hidden;points=[[0,0.5],[1,0.5]];portConstraint=eastwest;rotatable=0;whiteSpace=wrap;html=1;" parent="h9AJb2mvWXVQ0J7r2r_D-2" vertex="1">
          <mxGeometry y="90" width="160" height="30" as="geometry" />
        </mxCell>
        <mxCell id="h9AJb2mvWXVQ0J7r2r_D-21" value="Combustor() Class" style="text;strokeColor=none;fillColor=none;align=left;verticalAlign=middle;spacingLeft=4;spacingRight=4;overflow=hidden;points=[[0,0.5],[1,0.5]];portConstraint=eastwest;rotatable=0;whiteSpace=wrap;html=1;" parent="h9AJb2mvWXVQ0J7r2r_D-2" vertex="1">
          <mxGeometry y="120" width="160" height="30" as="geometry" />
        </mxCell>
        <mxCell id="h9AJb2mvWXVQ0J7r2r_D-22" value="Turbine() Class" style="text;strokeColor=none;fillColor=none;align=left;verticalAlign=middle;spacingLeft=4;spacingRight=4;overflow=hidden;points=[[0,0.5],[1,0.5]];portConstraint=eastwest;rotatable=0;whiteSpace=wrap;html=1;" parent="h9AJb2mvWXVQ0J7r2r_D-2" vertex="1">
          <mxGeometry y="150" width="160" height="30" as="geometry" />
        </mxCell>
        <mxCell id="h9AJb2mvWXVQ0J7r2r_D-24" value="Nozzle() Class" style="text;strokeColor=none;fillColor=none;align=left;verticalAlign=middle;spacingLeft=4;spacingRight=4;overflow=hidden;points=[[0,0.5],[1,0.5]];portConstraint=eastwest;rotatable=0;whiteSpace=wrap;html=1;" parent="h9AJb2mvWXVQ0J7r2r_D-2" vertex="1">
          <mxGeometry y="180" width="160" height="30" as="geometry" />
        </mxCell>
        <mxCell id="h9AJb2mvWXVQ0J7r2r_D-25" value="compressor_stage() Class" style="text;strokeColor=none;fillColor=none;align=left;verticalAlign=middle;spacingLeft=4;spacingRight=4;overflow=hidden;points=[[0,0.5],[1,0.5]];portConstraint=eastwest;rotatable=0;whiteSpace=wrap;html=1;" parent="h9AJb2mvWXVQ0J7r2r_D-2" vertex="1">
          <mxGeometry y="210" width="160" height="30" as="geometry" />
        </mxCell>
        <mxCell id="h9AJb2mvWXVQ0J7r2r_D-26" value="turbine_free_vortex() Class" style="text;strokeColor=none;fillColor=none;align=left;verticalAlign=middle;spacingLeft=4;spacingRight=4;overflow=hidden;points=[[0,0.5],[1,0.5]];portConstraint=eastwest;rotatable=0;whiteSpace=wrap;html=1;" parent="h9AJb2mvWXVQ0J7r2r_D-2" vertex="1">
          <mxGeometry y="240" width="160" height="30" as="geometry" />
        </mxCell>
        <mxCell id="h9AJb2mvWXVQ0J7r2r_D-27" value="tubrine_stage() Class" style="text;strokeColor=none;fillColor=none;align=left;verticalAlign=middle;spacingLeft=4;spacingRight=4;overflow=hidden;points=[[0,0.5],[1,0.5]];portConstraint=eastwest;rotatable=0;whiteSpace=wrap;html=1;" parent="h9AJb2mvWXVQ0J7r2r_D-2" vertex="1">
          <mxGeometry y="270" width="160" height="30" as="geometry" />
        </mxCell>
        <mxCell id="h9AJb2mvWXVQ0J7r2r_D-28" value="combustor_component() Class" style="text;strokeColor=none;fillColor=none;align=left;verticalAlign=middle;spacingLeft=4;spacingRight=4;overflow=hidden;points=[[0,0.5],[1,0.5]];portConstraint=eastwest;rotatable=0;whiteSpace=wrap;html=1;" parent="h9AJb2mvWXVQ0J7r2r_D-2" vertex="1">
          <mxGeometry y="300" width="160" height="30" as="geometry" />
        </mxCell>
        <mxCell id="h9AJb2mvWXVQ0J7r2r_D-29" value="&lt;b&gt;Engline Classes&lt;/b&gt;" style="text;strokeColor=none;fillColor=none;align=left;verticalAlign=middle;spacingLeft=4;spacingRight=4;overflow=hidden;points=[[0,0.5],[1,0.5]];portConstraint=eastwest;rotatable=0;whiteSpace=wrap;html=1;" parent="h9AJb2mvWXVQ0J7r2r_D-2" vertex="1">
          <mxGeometry y="330" width="160" height="30" as="geometry" />
        </mxCell>
        <mxCell id="h9AJb2mvWXVQ0J7r2r_D-30" value="Turbofan_SingleSpool() Class" style="text;strokeColor=none;fillColor=none;align=left;verticalAlign=middle;spacingLeft=4;spacingRight=4;overflow=hidden;points=[[0,0.5],[1,0.5]];portConstraint=eastwest;rotatable=0;whiteSpace=wrap;html=1;" parent="h9AJb2mvWXVQ0J7r2r_D-2" vertex="1">
          <mxGeometry y="360" width="160" height="30" as="geometry" />
        </mxCell>
        <mxCell id="h9AJb2mvWXVQ0J7r2r_D-31" value="Turbofan_DoubleSpool() Class" style="text;strokeColor=none;fillColor=none;align=left;verticalAlign=middle;spacingLeft=4;spacingRight=4;overflow=hidden;points=[[0,0.5],[1,0.5]];portConstraint=eastwest;rotatable=0;whiteSpace=wrap;html=1;" parent="h9AJb2mvWXVQ0J7r2r_D-2" vertex="1">
          <mxGeometry y="390" width="160" height="30" as="geometry" />
        </mxCell>
        <mxCell id="h9AJb2mvWXVQ0J7r2r_D-59" style="edgeStyle=orthogonalEdgeStyle;rounded=0;orthogonalLoop=1;jettySize=auto;html=1;entryX=0.75;entryY=0;entryDx=0;entryDy=0;" parent="h9AJb2mvWXVQ0J7r2r_D-72" source="h9AJb2mvWXVQ0J7r2r_D-6" target="h9AJb2mvWXVQ0J7r2r_D-2" edge="1">
          <mxGeometry relative="1" as="geometry" />
        </mxCell>
        <mxCell id="h9AJb2mvWXVQ0J7r2r_D-6" value="EngineErros" style="swimlane;fontStyle=0;childLayout=stackLayout;horizontal=1;startSize=30;horizontalStack=0;resizeParent=1;resizeParentMax=0;resizeLast=0;collapsible=1;marginBottom=0;whiteSpace=wrap;html=1;" parent="h9AJb2mvWXVQ0J7r2r_D-72" vertex="1">
          <mxGeometry x="580" y="260" width="210" height="90" as="geometry" />
        </mxCell>
        <mxCell id="h9AJb2mvWXVQ0J7r2r_D-7" value="MissingValue() Exception Class" style="text;strokeColor=none;fillColor=none;align=left;verticalAlign=middle;spacingLeft=4;spacingRight=4;overflow=hidden;points=[[0,0.5],[1,0.5]];portConstraint=eastwest;rotatable=0;whiteSpace=wrap;html=1;" parent="h9AJb2mvWXVQ0J7r2r_D-6" vertex="1">
          <mxGeometry y="30" width="210" height="30" as="geometry" />
        </mxCell>
        <mxCell id="h9AJb2mvWXVQ0J7r2r_D-8" value="IncompleteInputs() Exception Class" style="text;strokeColor=none;fillColor=none;align=left;verticalAlign=middle;spacingLeft=4;spacingRight=4;overflow=hidden;points=[[0,0.5],[1,0.5]];portConstraint=eastwest;rotatable=0;whiteSpace=wrap;html=1;" parent="h9AJb2mvWXVQ0J7r2r_D-6" vertex="1">
          <mxGeometry y="60" width="210" height="30" as="geometry" />
        </mxCell>
        <mxCell id="h9AJb2mvWXVQ0J7r2r_D-58" style="edgeStyle=orthogonalEdgeStyle;rounded=0;orthogonalLoop=1;jettySize=auto;html=1;entryX=0.5;entryY=0;entryDx=0;entryDy=0;" parent="h9AJb2mvWXVQ0J7r2r_D-72" source="h9AJb2mvWXVQ0J7r2r_D-10" target="h9AJb2mvWXVQ0J7r2r_D-2" edge="1">
          <mxGeometry relative="1" as="geometry" />
        </mxCell>
        <mxCell id="h9AJb2mvWXVQ0J7r2r_D-10" value="EnginePerformanceFunctiosn" style="swimlane;fontStyle=0;childLayout=stackLayout;horizontal=1;startSize=30;horizontalStack=0;resizeParent=1;resizeParentMax=0;resizeLast=0;collapsible=1;marginBottom=0;whiteSpace=wrap;html=1;" parent="h9AJb2mvWXVQ0J7r2r_D-72" vertex="1">
          <mxGeometry x="300" y="40" width="170" height="300" as="geometry" />
        </mxCell>
        <mxCell id="h9AJb2mvWXVQ0J7r2r_D-11" value="mdot_1() Fnct" style="text;strokeColor=none;fillColor=none;align=left;verticalAlign=middle;spacingLeft=4;spacingRight=4;overflow=hidden;points=[[0,0.5],[1,0.5]];portConstraint=eastwest;rotatable=0;whiteSpace=wrap;html=1;" parent="h9AJb2mvWXVQ0J7r2r_D-10" vertex="1">
          <mxGeometry y="30" width="170" height="30" as="geometry" />
        </mxCell>
        <mxCell id="h9AJb2mvWXVQ0J7r2r_D-12" value="mdot_2() Fnct" style="text;strokeColor=none;fillColor=none;align=left;verticalAlign=middle;spacingLeft=4;spacingRight=4;overflow=hidden;points=[[0,0.5],[1,0.5]];portConstraint=eastwest;rotatable=0;whiteSpace=wrap;html=1;" parent="h9AJb2mvWXVQ0J7r2r_D-10" vertex="1">
          <mxGeometry y="60" width="170" height="30" as="geometry" />
        </mxCell>
        <mxCell id="h9AJb2mvWXVQ0J7r2r_D-13" value="Thrust_1() Fnct" style="text;strokeColor=none;fillColor=none;align=left;verticalAlign=middle;spacingLeft=4;spacingRight=4;overflow=hidden;points=[[0,0.5],[1,0.5]];portConstraint=eastwest;rotatable=0;whiteSpace=wrap;html=1;" parent="h9AJb2mvWXVQ0J7r2r_D-10" vertex="1">
          <mxGeometry y="90" width="170" height="30" as="geometry" />
        </mxCell>
        <mxCell id="h9AJb2mvWXVQ0J7r2r_D-61" value="Thrust_1() Fnct" style="text;strokeColor=none;fillColor=none;align=left;verticalAlign=middle;spacingLeft=4;spacingRight=4;overflow=hidden;points=[[0,0.5],[1,0.5]];portConstraint=eastwest;rotatable=0;whiteSpace=wrap;html=1;" parent="h9AJb2mvWXVQ0J7r2r_D-10" vertex="1">
          <mxGeometry y="120" width="170" height="30" as="geometry" />
        </mxCell>
        <mxCell id="h9AJb2mvWXVQ0J7r2r_D-62" value="f_1() Fnct" style="text;strokeColor=none;fillColor=none;align=left;verticalAlign=middle;spacingLeft=4;spacingRight=4;overflow=hidden;points=[[0,0.5],[1,0.5]];portConstraint=eastwest;rotatable=0;whiteSpace=wrap;html=1;" parent="h9AJb2mvWXVQ0J7r2r_D-10" vertex="1">
          <mxGeometry y="150" width="170" height="30" as="geometry" />
        </mxCell>
        <mxCell id="h9AJb2mvWXVQ0J7r2r_D-63" value="TSFC_1() Fnct" style="text;strokeColor=none;fillColor=none;align=left;verticalAlign=middle;spacingLeft=4;spacingRight=4;overflow=hidden;points=[[0,0.5],[1,0.5]];portConstraint=eastwest;rotatable=0;whiteSpace=wrap;html=1;" parent="h9AJb2mvWXVQ0J7r2r_D-10" vertex="1">
          <mxGeometry y="180" width="170" height="30" as="geometry" />
        </mxCell>
        <mxCell id="h9AJb2mvWXVQ0J7r2r_D-64" value="nT_1() Fnct" style="text;strokeColor=none;fillColor=none;align=left;verticalAlign=middle;spacingLeft=4;spacingRight=4;overflow=hidden;points=[[0,0.5],[1,0.5]];portConstraint=eastwest;rotatable=0;whiteSpace=wrap;html=1;" parent="h9AJb2mvWXVQ0J7r2r_D-10" vertex="1">
          <mxGeometry y="210" width="170" height="30" as="geometry" />
        </mxCell>
        <mxCell id="h9AJb2mvWXVQ0J7r2r_D-65" value="nP_1() Fnct" style="text;strokeColor=none;fillColor=none;align=left;verticalAlign=middle;spacingLeft=4;spacingRight=4;overflow=hidden;points=[[0,0.5],[1,0.5]];portConstraint=eastwest;rotatable=0;whiteSpace=wrap;html=1;" parent="h9AJb2mvWXVQ0J7r2r_D-10" vertex="1">
          <mxGeometry y="240" width="170" height="30" as="geometry" />
        </mxCell>
        <mxCell id="h9AJb2mvWXVQ0J7r2r_D-66" value="n0() Fnct" style="text;strokeColor=none;fillColor=none;align=left;verticalAlign=middle;spacingLeft=4;spacingRight=4;overflow=hidden;points=[[0,0.5],[1,0.5]];portConstraint=eastwest;rotatable=0;whiteSpace=wrap;html=1;" parent="h9AJb2mvWXVQ0J7r2r_D-10" vertex="1">
          <mxGeometry y="270" width="170" height="30" as="geometry" />
        </mxCell>
        <mxCell id="h9AJb2mvWXVQ0J7r2r_D-60" style="edgeStyle=orthogonalEdgeStyle;rounded=0;orthogonalLoop=1;jettySize=auto;html=1;" parent="h9AJb2mvWXVQ0J7r2r_D-72" source="h9AJb2mvWXVQ0J7r2r_D-6" target="h9AJb2mvWXVQ0J7r2r_D-10" edge="1">
          <mxGeometry relative="1" as="geometry" />
        </mxCell>
        <mxCell id="h9AJb2mvWXVQ0J7r2r_D-44" style="edgeStyle=orthogonalEdgeStyle;rounded=0;orthogonalLoop=1;jettySize=auto;html=1;entryX=0.999;entryY=0.035;entryDx=0;entryDy=0;entryPerimeter=0;" parent="h9AJb2mvWXVQ0J7r2r_D-72" source="h9AJb2mvWXVQ0J7r2r_D-40" target="h9AJb2mvWXVQ0J7r2r_D-2" edge="1">
          <mxGeometry relative="1" as="geometry" />
        </mxCell>
        <mxCell id="h9AJb2mvWXVQ0J7r2r_D-84" style="edgeStyle=orthogonalEdgeStyle;rounded=0;orthogonalLoop=1;jettySize=auto;html=1;" parent="h9AJb2mvWXVQ0J7r2r_D-72" source="h9AJb2mvWXVQ0J7r2r_D-40" target="h9AJb2mvWXVQ0J7r2r_D-77" edge="1">
          <mxGeometry relative="1" as="geometry">
            <Array as="points">
              <mxPoint x="830" y="650" />
              <mxPoint x="830" y="650" />
            </Array>
          </mxGeometry>
        </mxCell>
        <mxCell id="h9AJb2mvWXVQ0J7r2r_D-40" value="freeVortexCompressor&lt;br&gt;(Marek&#39;s)" style="swimlane;fontStyle=0;childLayout=stackLayout;horizontal=1;startSize=30;horizontalStack=0;resizeParent=1;resizeParentMax=0;resizeLast=0;collapsible=1;marginBottom=0;whiteSpace=wrap;html=1;" parent="h9AJb2mvWXVQ0J7r2r_D-72" vertex="1">
          <mxGeometry x="720" y="470" width="140" height="120" as="geometry" />
        </mxCell>
        <mxCell id="h9AJb2mvWXVQ0J7r2r_D-41" value="Item 1" style="text;strokeColor=none;fillColor=none;align=left;verticalAlign=middle;spacingLeft=4;spacingRight=4;overflow=hidden;points=[[0,0.5],[1,0.5]];portConstraint=eastwest;rotatable=0;whiteSpace=wrap;html=1;" parent="h9AJb2mvWXVQ0J7r2r_D-40" vertex="1">
          <mxGeometry y="30" width="140" height="30" as="geometry" />
        </mxCell>
        <mxCell id="h9AJb2mvWXVQ0J7r2r_D-42" value="Item 2" style="text;strokeColor=none;fillColor=none;align=left;verticalAlign=middle;spacingLeft=4;spacingRight=4;overflow=hidden;points=[[0,0.5],[1,0.5]];portConstraint=eastwest;rotatable=0;whiteSpace=wrap;html=1;" parent="h9AJb2mvWXVQ0J7r2r_D-40" vertex="1">
          <mxGeometry y="60" width="140" height="30" as="geometry" />
        </mxCell>
        <mxCell id="h9AJb2mvWXVQ0J7r2r_D-43" value="Item 3" style="text;strokeColor=none;fillColor=none;align=left;verticalAlign=middle;spacingLeft=4;spacingRight=4;overflow=hidden;points=[[0,0.5],[1,0.5]];portConstraint=eastwest;rotatable=0;whiteSpace=wrap;html=1;" parent="h9AJb2mvWXVQ0J7r2r_D-40" vertex="1">
          <mxGeometry y="90" width="140" height="30" as="geometry" />
        </mxCell>
        <mxCell id="h9AJb2mvWXVQ0J7r2r_D-45" value="Overview Analysis" style="swimlane;fontStyle=0;childLayout=stackLayout;horizontal=1;startSize=30;horizontalStack=0;resizeParent=1;resizeParentMax=0;resizeLast=0;collapsible=1;marginBottom=0;whiteSpace=wrap;html=1;" parent="h9AJb2mvWXVQ0J7r2r_D-72" vertex="1">
          <mxGeometry x="50" y="950" width="140" height="60" as="geometry" />
        </mxCell>
        <mxCell id="h9AJb2mvWXVQ0J7r2r_D-46" value="Overview analysis of&amp;nbsp; an entire engine" style="text;strokeColor=none;fillColor=none;align=left;verticalAlign=middle;spacingLeft=4;spacingRight=4;overflow=hidden;points=[[0,0.5],[1,0.5]];portConstraint=eastwest;rotatable=0;whiteSpace=wrap;html=1;" parent="h9AJb2mvWXVQ0J7r2r_D-45" vertex="1">
          <mxGeometry y="30" width="140" height="30" as="geometry" />
        </mxCell>
        <mxCell id="h9AJb2mvWXVQ0J7r2r_D-49" style="edgeStyle=orthogonalEdgeStyle;rounded=0;orthogonalLoop=1;jettySize=auto;html=1;entryX=1;entryY=0.25;entryDx=0;entryDy=0;" parent="h9AJb2mvWXVQ0J7r2r_D-72" source="h9AJb2mvWXVQ0J7r2r_D-25" target="h9AJb2mvWXVQ0J7r2r_D-45" edge="1">
          <mxGeometry relative="1" as="geometry" />
        </mxCell>
        <mxCell id="h9AJb2mvWXVQ0J7r2r_D-54" style="edgeStyle=orthogonalEdgeStyle;rounded=0;orthogonalLoop=1;jettySize=auto;html=1;" parent="h9AJb2mvWXVQ0J7r2r_D-72" source="h9AJb2mvWXVQ0J7r2r_D-50" target="h9AJb2mvWXVQ0J7r2r_D-45" edge="1">
          <mxGeometry relative="1" as="geometry" />
        </mxCell>
        <mxCell id="h9AJb2mvWXVQ0J7r2r_D-82" style="edgeStyle=orthogonalEdgeStyle;rounded=0;orthogonalLoop=1;jettySize=auto;html=1;" parent="h9AJb2mvWXVQ0J7r2r_D-72" source="h9AJb2mvWXVQ0J7r2r_D-50" target="h9AJb2mvWXVQ0J7r2r_D-77" edge="1">
          <mxGeometry relative="1" as="geometry" />
        </mxCell>
        <mxCell id="h9AJb2mvWXVQ0J7r2r_D-50" value="parameters" style="swimlane;fontStyle=0;childLayout=stackLayout;horizontal=1;startSize=30;horizontalStack=0;resizeParent=1;resizeParentMax=0;resizeLast=0;collapsible=1;marginBottom=0;whiteSpace=wrap;html=1;" parent="h9AJb2mvWXVQ0J7r2r_D-72" vertex="1">
          <mxGeometry x="400" y="990" width="140" height="110" as="geometry" />
        </mxCell>
        <mxCell id="h9AJb2mvWXVQ0J7r2r_D-51" value="Dictionary for the kwargs to pass into the eine classes. This gives just one file to deal with parameters" style="text;strokeColor=none;fillColor=none;align=left;verticalAlign=middle;spacingLeft=4;spacingRight=4;overflow=hidden;points=[[0,0.5],[1,0.5]];portConstraint=eastwest;rotatable=0;whiteSpace=wrap;html=1;" parent="h9AJb2mvWXVQ0J7r2r_D-50" vertex="1">
          <mxGeometry y="30" width="140" height="80" as="geometry" />
        </mxCell>
        <mxCell id="h9AJb2mvWXVQ0J7r2r_D-57" style="edgeStyle=orthogonalEdgeStyle;rounded=0;orthogonalLoop=1;jettySize=auto;html=1;entryX=0.25;entryY=0;entryDx=0;entryDy=0;" parent="h9AJb2mvWXVQ0J7r2r_D-72" source="h9AJb2mvWXVQ0J7r2r_D-14" target="h9AJb2mvWXVQ0J7r2r_D-2" edge="1">
          <mxGeometry relative="1" as="geometry" />
        </mxCell>
        <mxCell id="h9AJb2mvWXVQ0J7r2r_D-14" value="WorkDoneFactor" style="swimlane;fontStyle=0;childLayout=stackLayout;horizontal=1;startSize=30;horizontalStack=0;resizeParent=1;resizeParentMax=0;resizeLast=0;collapsible=1;marginBottom=0;whiteSpace=wrap;html=1;" parent="h9AJb2mvWXVQ0J7r2r_D-72" vertex="1">
          <mxGeometry x="150" y="350" width="140" height="90" as="geometry" />
        </mxCell>
        <mxCell id="h9AJb2mvWXVQ0J7r2r_D-15" value="interp_wdf() Function" style="text;strokeColor=none;fillColor=none;align=left;verticalAlign=middle;spacingLeft=4;spacingRight=4;overflow=hidden;points=[[0,0.5],[1,0.5]];portConstraint=eastwest;rotatable=0;whiteSpace=wrap;html=1;" parent="h9AJb2mvWXVQ0J7r2r_D-14" vertex="1">
          <mxGeometry y="30" width="140" height="30" as="geometry" />
        </mxCell>
        <mxCell id="h9AJb2mvWXVQ0J7r2r_D-16" value="Interpolates the WDF for a given stage" style="text;strokeColor=none;fillColor=none;align=left;verticalAlign=middle;spacingLeft=4;spacingRight=4;overflow=hidden;points=[[0,0.5],[1,0.5]];portConstraint=eastwest;rotatable=0;whiteSpace=wrap;html=1;" parent="h9AJb2mvWXVQ0J7r2r_D-14" vertex="1">
          <mxGeometry y="60" width="140" height="30" as="geometry" />
        </mxCell>
        <mxCell id="h9AJb2mvWXVQ0J7r2r_D-77" value="TurbineStage_Test" style="swimlane;fontStyle=0;childLayout=stackLayout;horizontal=1;startSize=30;horizontalStack=0;resizeParent=1;resizeParentMax=0;resizeLast=0;collapsible=1;marginBottom=0;whiteSpace=wrap;html=1;" parent="h9AJb2mvWXVQ0J7r2r_D-72" vertex="1">
          <mxGeometry x="760" y="800" width="230" height="180" as="geometry" />
        </mxCell>
        <mxCell id="h9AJb2mvWXVQ0J7r2r_D-78" value="Includes adjustable parameters that can be changed by user (for this assignent)" style="text;strokeColor=none;fillColor=none;align=left;verticalAlign=middle;spacingLeft=4;spacingRight=4;overflow=hidden;points=[[0,0.5],[1,0.5]];portConstraint=eastwest;rotatable=0;whiteSpace=wrap;html=1;" parent="h9AJb2mvWXVQ0J7r2r_D-77" vertex="1">
          <mxGeometry y="30" width="230" height="50" as="geometry" />
        </mxCell>
        <mxCell id="h9AJb2mvWXVQ0J7r2r_D-79" value="Then calcs overall engine characteristics and outputs" style="text;strokeColor=none;fillColor=none;align=left;verticalAlign=middle;spacingLeft=4;spacingRight=4;overflow=hidden;points=[[0,0.5],[1,0.5]];portConstraint=eastwest;rotatable=0;whiteSpace=wrap;html=1;" parent="h9AJb2mvWXVQ0J7r2r_D-77" vertex="1">
          <mxGeometry y="80" width="230" height="40" as="geometry" />
        </mxCell>
        <mxCell id="h9AJb2mvWXVQ0J7r2r_D-80" value="uses EngineModfule turbine_free_vortex and the data handling from Marek&#39;s freeCortexCompressor" style="text;strokeColor=none;fillColor=none;align=left;verticalAlign=middle;spacingLeft=4;spacingRight=4;overflow=hidden;points=[[0,0.5],[1,0.5]];portConstraint=eastwest;rotatable=0;whiteSpace=wrap;html=1;" parent="h9AJb2mvWXVQ0J7r2r_D-77" vertex="1">
          <mxGeometry y="120" width="230" height="60" as="geometry" />
        </mxCell>
        <mxCell id="h9AJb2mvWXVQ0J7r2r_D-83" style="edgeStyle=orthogonalEdgeStyle;rounded=0;orthogonalLoop=1;jettySize=auto;html=1;" parent="h9AJb2mvWXVQ0J7r2r_D-72" source="h9AJb2mvWXVQ0J7r2r_D-73" target="h9AJb2mvWXVQ0J7r2r_D-77" edge="1">
          <mxGeometry relative="1" as="geometry" />
        </mxCell>
        <mxCell id="h9AJb2mvWXVQ0J7r2r_D-73" value="compressorParameters" style="swimlane;fontStyle=0;childLayout=stackLayout;horizontal=1;startSize=30;horizontalStack=0;resizeParent=1;resizeParentMax=0;resizeLast=0;collapsible=1;marginBottom=0;whiteSpace=wrap;html=1;" parent="h9AJb2mvWXVQ0J7r2r_D-72" vertex="1">
          <mxGeometry x="880" y="670" width="140" height="60" as="geometry" />
        </mxCell>
        <mxCell id="h9AJb2mvWXVQ0J7r2r_D-74" value="Assigment Based like deHaller criteria and max mach" style="text;strokeColor=none;fillColor=none;align=left;verticalAlign=middle;spacingLeft=4;spacingRight=4;overflow=hidden;points=[[0,0.5],[1,0.5]];portConstraint=eastwest;rotatable=0;whiteSpace=wrap;html=1;" parent="h9AJb2mvWXVQ0J7r2r_D-73" vertex="1">
          <mxGeometry y="30" width="140" height="30" as="geometry" />
        </mxCell>
        <mxCell id="h9AJb2mvWXVQ0J7r2r_D-85" value="StageDesignAnalysis" style="swimlane;fontStyle=0;childLayout=stackLayout;horizontal=1;startSize=30;horizontalStack=0;resizeParent=1;resizeParentMax=0;resizeLast=0;collapsible=1;marginBottom=0;whiteSpace=wrap;html=1;" parent="h9AJb2mvWXVQ0J7r2r_D-72" vertex="1">
          <mxGeometry x="580" y="1150" width="140" height="150" as="geometry" />
        </mxCell>
        <mxCell id="h9AJb2mvWXVQ0J7r2r_D-86" value="Includes adjustable parameters for analysis" style="text;strokeColor=none;fillColor=none;align=left;verticalAlign=middle;spacingLeft=4;spacingRight=4;overflow=hidden;points=[[0,0.5],[1,0.5]];portConstraint=eastwest;rotatable=0;whiteSpace=wrap;html=1;" parent="h9AJb2mvWXVQ0J7r2r_D-85" vertex="1">
          <mxGeometry y="30" width="140" height="30" as="geometry" />
        </mxCell>
        <mxCell id="h9AJb2mvWXVQ0J7r2r_D-87" value="Calcs overall engine characteristics&lt;span style=&quot;white-space: pre;&quot;&gt;&#x9;&lt;/span&gt;" style="text;strokeColor=none;fillColor=none;align=left;verticalAlign=middle;spacingLeft=4;spacingRight=4;overflow=hidden;points=[[0,0.5],[1,0.5]];portConstraint=eastwest;rotatable=0;whiteSpace=wrap;html=1;" parent="h9AJb2mvWXVQ0J7r2r_D-85" vertex="1">
          <mxGeometry y="60" width="140" height="40" as="geometry" />
        </mxCell>
        <mxCell id="h9AJb2mvWXVQ0J7r2r_D-88" value="Hand calculates stage details (num stages, gas angles, etc)&lt;br&gt;" style="text;strokeColor=none;fillColor=none;align=left;verticalAlign=middle;spacingLeft=4;spacingRight=4;overflow=hidden;points=[[0,0.5],[1,0.5]];portConstraint=eastwest;rotatable=0;whiteSpace=wrap;html=1;" parent="h9AJb2mvWXVQ0J7r2r_D-85" vertex="1">
          <mxGeometry y="100" width="140" height="50" as="geometry" />
        </mxCell>
        <mxCell id="h9AJb2mvWXVQ0J7r2r_D-89" style="edgeStyle=orthogonalEdgeStyle;rounded=0;orthogonalLoop=1;jettySize=auto;html=1;" parent="h9AJb2mvWXVQ0J7r2r_D-72" source="h9AJb2mvWXVQ0J7r2r_D-51" edge="1">
          <mxGeometry relative="1" as="geometry">
            <mxPoint x="520" y="1070" as="sourcePoint" />
            <mxPoint x="630" y="1150" as="targetPoint" />
            <Array as="points">
              <mxPoint x="630" y="1070" />
            </Array>
          </mxGeometry>
        </mxCell>
      </root>
    </mxGraphModel>
  </diagram>
</mxfile>
